<?xml version="1.0" encoding="iso-8859-1"?>
<!-- Generator: Adobe Illustrator 25.2.0, SVG Export Plug-In . SVG Version: 6.00 Build 0)  -->
<svg version="1.1" id="Capa_1" xmlns="http://www.w3.org/2000/svg" xmlns:xlink="http://www.w3.org/1999/xlink" x="0px" y="0px"
	 viewBox="-49 141 512 512" style="enable-background:new -49 141 512 512;" xml:space="preserve">
<g>
	<path style="fill:none;stroke:#8266FF;stroke-width:5;stroke-miterlimit:10;" d="M258.467,172.6v157.867
		c0,13.867-11.733,25.6-25.6,25.6H97.4L-2.867,408.333v-52.267H-11.4c-13.867,0-25.6-11.733-25.6-25.6V172.6
		c0-13.867,11.733-25.6,25.6-25.6h245.333C247.8,147,258.467,158.733,258.467,172.6z"/>
	<g>
		
			<ellipse transform="matrix(0.0825 -0.9966 0.9966 0.0825 -221.0098 263.0099)" style="fill:none;stroke:#8266FF;stroke-width:5;stroke-miterlimit:10;" cx="32.333" cy="251.533" rx="27.733" ry="27.733"/>
		<circle style="fill:none;stroke:#8266FF;stroke-width:5;stroke-miterlimit:10;" cx="111.267" cy="251.533" r="27.733"/>
		<circle style="fill:none;stroke:#8266FF;stroke-width:5;stroke-miterlimit:10;" cx="190.2" cy="251.533" r="27.733"/>
	</g>
</g>
<g>
	<path style="fill:#FAFAFC;stroke:#8266FF;stroke-width:5;stroke-miterlimit:10;" d="M156.533,242.533v156.8
		c0,13.867,11.733,25.6,25.6,25.6h136.533L418.933,477.2v-52.267h7.467c13.867,0,25.6-11.733,25.6-25.6v-156.8
		c0-13.867-11.733-25.6-25.6-25.6H181.067C167.2,216.933,156.533,228.667,156.533,242.533z"/>
	<g>
		<circle style="fill:none;stroke:#8266FF;stroke-width:5;stroke-miterlimit:10;" cx="382.667" cy="321.467" r="27.733"/>
		<circle style="fill:none;stroke:#8266FF;stroke-width:5;stroke-miterlimit:10;" cx="303.733" cy="321.467" r="27.733"/>
		<circle style="fill:none;stroke:#8266FF;stroke-width:5;stroke-miterlimit:10;" cx="224.8" cy="321.467" r="27.733"/>
	</g>
</g>
<g>
	<path style="fill:#FDFDFF;stroke:#8266FF;stroke-width:5;stroke-miterlimit:10;" d="M327.2,414.333V572.2
		c0,13.867-11.733,25.6-25.6,25.6h-84.267l-38.4,51.2l-38.4-52.267h-83.2c-13.867,0-25.6-11.733-25.6-25.6v-156.8
		c0-13.867,11.733-25.6,25.6-25.6h245.333C316.533,388.733,327.2,400.467,327.2,414.333z"/>
	<g>
		<circle style="fill:none;stroke:#8266FF;stroke-width:5;stroke-miterlimit:10;" cx="257.867" cy="493.267" r="27.733"/>
		<circle style="fill:none;stroke:#8266FF;stroke-width:5;stroke-miterlimit:10;" cx="180" cy="493.267" r="27.733"/>
		<circle style="fill:none;stroke:#8266FF;stroke-width:5;stroke-miterlimit:10;" cx="101.067" cy="493.267" r="27.733"/>
	</g>
</g>
</svg>
