<?xml version="1.0" encoding="utf-8"?>
<!-- Generator: Adobe Illustrator 25.2.0, SVG Export Plug-In . SVG Version: 6.00 Build 0)  -->
<svg version="1.1" id="Layer_1" xmlns="http://www.w3.org/2000/svg" xmlns:xlink="http://www.w3.org/1999/xlink" x="0px" y="0px"
	 viewBox="0 0 2250 750" style="enable-background:new 0 0 2250 750;" xml:space="preserve">
<style type="text/css">
	.st0{fill:#FFFFFF;}
	.st1{fill:#8266FF;}
	.st2{fill:none;stroke:#8266FF;stroke-width:40;stroke-miterlimit:10.0001;}
	.st3{fill:none;stroke:#8266FF;stroke-width:40;stroke-miterlimit:10;}
</style>
<rect y="-1" class="st0" width="753" height="753"/>
<rect x="748" y="-1" class="st0" width="753" height="753"/>
<rect x="1497" y="-1" class="st0" width="753" height="753"/>
<g>
	<g>
		<path class="st1" d="M90.3,680.3v-82.5c0-9.4-6.4-17.6-15.6-19.6c-35.4-7.6-62.8-39.8-62.8-77.1V158.3c0-54.2,44.4-98.6,98.6-98.6
			h543.8c42.1,0,76.4,35.4,76.4,78.8v342.8c0,54.2-44.4,98.6-98.6,98.6H350.4c-3.2,0-6.3,0.8-9.2,2.2l-222,115.7
			C106.1,704.8,90.3,695.2,90.3,680.3z M110.5,99.7c-32.2,0-58.6,26.4-58.6,58.6v323c0,32.2,26.4,58.6,58.6,58.6h0
			c10.9,0,19.8,8.9,19.8,19.8v54.6c0,14.9,15.8,24.4,29,17.6l172.2-89.7c2.8-1.5,6-2.2,9.2-2.2H632c32.2,0,58.6-26.4,58.6-58.6
			V138.5c0-21.4-16.3-38.8-36.4-38.8H110.5z"/>
	</g>
	<g>
		<ellipse class="st2" cx="191.2" cy="319.8" rx="63.7" ry="63.7"/>
		<circle class="st3" cx="372.5" cy="319.8" r="63.7"/>
		<circle class="st3" cx="553.8" cy="319.8" r="63.7"/>
	</g>
</g>
<g>
	<g>
		<path class="st1" d="M1201.1,409.9H928.5c-12.6,0-22.9-10.2-22.9-22.9v-24.2c0-12.6,10.2-22.9,22.9-22.9h272.7
			c12.6,0,22.9,10.2,22.9,22.9V387C1224,399.7,1213.8,409.9,1201.1,409.9z"/>
	</g>
	<path class="st1" d="M1299.7,395.1l-151.3,83.7c-12.8,7.1-28.4-2.4-28.2-17l3.2-172.9c0.3-14.6,16.3-23.4,28.8-15.9l148.1,89.2
		C1312.9,369.7,1312.5,388,1299.7,395.1z"/>
</g>
<g>
	<path class="st1" d="M1556.9,210.3c10.4,0,18.8-8.4,18.8-18.8v-86.8h86.8c10.4,0,18.8-8.4,18.8-18.8s-8.4-18.8-18.8-18.8h-105.6
		c-10.4,0-18.8,8.4-18.8,18.8v105.6C1538,201.8,1546.5,210.3,1556.9,210.3L1556.9,210.3z"/>
	<path class="st1" d="M2161.3,67h-105.6c-10.4,0-18.8,8.4-18.8,18.8s8.4,18.8,18.8,18.8h86.8v86.8c0,10.4,8.4,18.8,18.8,18.8
		s18.8-8.4,18.8-18.8V85.8C2180.1,75.4,2171.7,67,2161.3,67L2161.3,67z"/>
	<path class="st1" d="M2161.3,565.8c-10.4,0-18.8,8.4-18.8,18.8v86.8h-86.8c-10.4,0-18.8,8.4-18.8,18.8c0,10.4,8.4,18.8,18.8,18.8
		h105.6c10.4,0,18.8-8.4,18.8-18.8V584.6C2180.1,574.2,2171.7,565.8,2161.3,565.8L2161.3,565.8z"/>
	<path class="st1" d="M1662.5,671.5h-86.8v-86.8c0-10.4-8.4-18.8-18.8-18.8s-18.8,8.4-18.8,18.8v105.6c0,10.4,8.4,18.8,18.8,18.8
		h105.6c10.4,0,18.8-8.4,18.8-18.8C1681.3,679.9,1672.9,671.5,1662.5,671.5L1662.5,671.5z"/>
	<path class="st1" d="M2064.3,307V188.2c0-5.9-4.8-10.7-10.7-10.7h-389.1c-5.9,0-10.7,4.8-10.7,10.7V307c0,5.9,4.8,10.7,10.7,10.7
		h56.7c5.9,0,10.7-4.8,10.7-10.7v-40.7c0-5.9,4.8-10.7,10.7-10.7h66.7c5.9,0,10.7,4.8,10.7,10.7v293.6c0,5.9-4.8,10.7-10.7,10.7
		h-29.2c-5.9,0-10.7,4.8-10.7,10.7V638c0,5.9,4.8,10.7,10.7,10.7H1938c5.9,0,10.7-4.8,10.7-10.7v-56.7c0-5.9-4.8-10.7-10.7-10.7
		h-29.2c-5.9,0-10.7-4.8-10.7-10.7V266.3c0-5.9,4.8-10.7,10.7-10.7h66.7c5.9,0,10.7,4.8,10.7,10.7V307c0,5.9,4.8,10.7,10.7,10.7
		h56.7C2059.6,317.7,2064.3,312.9,2064.3,307L2064.3,307z"/>
</g>
</svg>
