<?xml version="1.0" encoding="utf-8"?>
<!-- Generator: Adobe Illustrator 25.2.0, SVG Export Plug-In . SVG Version: 6.00 Build 0)  -->
<svg version="1.1" id="Layer_1" xmlns="http://www.w3.org/2000/svg" xmlns:xlink="http://www.w3.org/1999/xlink" x="0px" y="0px"
	 viewBox="0 0 1500 1500" style="enable-background:new 0 0 1500 1500;" xml:space="preserve">
<style type="text/css">
	.st0{fill:#8266FF;}
</style>
<g>
	<path class="st0" d="M106.2,371.3c22.1,0,40.1-17.9,40.1-40.1V146.3h184.9c22.1,0,40.1-17.9,40.1-40.1s-17.9-40.1-40.1-40.1h-225
		c-22.1,0-40.1,17.9-40.1,40.1v225C66.2,353.4,84.1,371.3,106.2,371.3L106.2,371.3z"/>
	<path class="st0" d="M1393.8,66.2h-225c-22.1,0-40.1,17.9-40.1,40.1s17.9,40.1,40.1,40.1h184.9v184.9c0,22.1,17.9,40.1,40.1,40.1
		s40.1-17.9,40.1-40.1v-225C1433.8,84.1,1415.9,66.2,1393.8,66.2L1393.8,66.2z"/>
	<path class="st0" d="M1393.8,1128.7c-22.1,0-40.1,17.9-40.1,40.1v184.9h-184.9c-22.1,0-40.1,17.9-40.1,40.1s17.9,40.1,40.1,40.1
		h225c22.1,0,40.1-17.9,40.1-40.1v-225C1433.8,1146.6,1415.9,1128.7,1393.8,1128.7L1393.8,1128.7z"/>
	<path class="st0" d="M331.2,1353.7H146.3v-184.9c0-22.1-17.9-40.1-40.1-40.1s-40.1,17.9-40.1,40.1v225c0,22.1,17.9,40.1,40.1,40.1
		h225c22.1,0,40.1-17.9,40.1-40.1S353.4,1353.7,331.2,1353.7L331.2,1353.7z"/>
	<path class="st0" d="M1187.2,577.4v-253c0-12.6-10.2-22.7-22.8-22.7H335.6c-12.6,0-22.8,10.2-22.8,22.7v253
		c0,12.6,10.2,22.8,22.8,22.8h120.8c12.6,0,22.7-10.2,22.7-22.8v-86.7c0-12.6,10.2-22.8,22.8-22.8h142.1c12.6,0,22.8,10.2,22.8,22.8
		v625.4c0,12.6-10.2,22.8-22.8,22.8h-62.2c-12.6,0-22.7,10.2-22.7,22.8v120.8c0,12.6,10.2,22.7,22.7,22.7h336.2
		c12.6,0,22.7-10.2,22.7-22.7v-120.8c0-12.6-10.2-22.8-22.7-22.8h-62.2c-12.6,0-22.8-10.2-22.8-22.8V490.7
		c0-12.6,10.2-22.8,22.8-22.8h142.1c12.6,0,22.8,10.2,22.8,22.8v86.7c0,12.6,10.2,22.8,22.7,22.8h120.8
		C1177,600.1,1187.2,590,1187.2,577.4L1187.2,577.4z"/>
</g>
</svg>
